arm26_optimize_states
version=1
nRows=41
nColumns=17
inDegrees=yes

# SIMM Motion File Header:
name arm26_optimize_states
datacolumns 17
datarows 41
otherdata 1
range 0.09321280 0.31580191
endheader
time	r_shoulder_elev	r_elbow_flex	r_shoulder_elev_u	r_elbow_flex_u	TRIlong.activation	TRIlong.fiber_length	TRIlat.activation	TRIlat.fiber_length	TRImed.activation	TRImed.fiber_length	BIClong.activation	BIClong.fiber_length	BICshort.activation	BICshort.fiber_length	BRA.activation	BRA.fiber_length
      0.09321280	     -1.00239737	      2.75016040	    -17.48215843	     52.91633639	      0.02113944	      0.13689860	      0.02113944	      0.07153405	      0.02113944	      0.07090389	      0.02113944	      0.14516735	      0.02113944	      0.14746141	      0.02113944	      0.08695383
      0.09644405	     -1.05871664	      2.92134689	    -17.34237624	     52.94222911	      0.02067141	      0.13693450	      0.02067141	      0.07150127	      0.02067141	      0.06992694	      0.02067141	      0.14515852	      0.02067141	      0.14744863	      0.02067141	      0.08696333
      0.09967531	     -1.11431638	      3.09186005	    -17.05300727	     52.54655466	      0.02022361	      0.13697089	      0.02022361	      0.07151724	      0.02022361	      0.06895126	      0.02022361	      0.14514889	      0.02022361	      0.14743482	      0.02022361	      0.08697258
      0.10290656	     -1.16883768	      3.26069850	    -16.68578859	     51.93727942	      0.01979512	      0.13700752	      0.01979512	      0.07156018	      0.01979512	      0.06797679	      0.01979512	      0.14513862	      0.01979512	      0.14742026	      0.01979512	      0.08698154
      0.10436930	     -1.19311631	      3.33645047	    -16.51007175	     51.63790334	      0.01960727	      0.13702414	      0.01960727	      0.07158575	      0.01960727	      0.06753605	      0.01960727	      0.14513379	      0.01960727	      0.14741347	      0.01960727	      0.08698550
      0.10521790	     -1.20708331	      3.38019655	    -16.40768962	     51.46404787	      0.01949998	      0.13703378	      0.01949998	      0.07160160	      0.01949998	      0.06728046	      0.01949998	      0.14513094	      0.01949998	      0.14740949	      0.01949998	      0.08698776
      0.10582084	     -1.21695426	      3.41118924	    -16.33507688	     51.34138878	      0.01942451	      0.13704063	      0.01942451	      0.07161317	      0.01942451	      0.06709891	      0.01942451	      0.14512890	      0.01942451	      0.14740664	      0.01942451	      0.08698935
      0.10627450	     -1.22435110	      3.43445604	    -16.27157592	     51.22368435	      0.01936812	      0.13704579	      0.01936812	      0.07162200	      0.01936812	      0.06700521	      0.01936812	      0.14512735	      0.01936812	      0.14740448	      0.01936812	      0.08699054
      0.10672816	     -1.23171537	      3.45765857	    -16.19205986	     51.05982050	      0.01931208	      0.13705094	      0.01931208	      0.07163092	      0.01931208	      0.06695574	      0.01931208	      0.14512579	      0.01931208	      0.14740232	      0.01931208	      0.08699173
      0.10785424	     -1.24981762	      3.51486899	    -15.94989129	     50.52431465	      0.01917447	      0.13706372	      0.01917447	      0.07165334	      0.01917447	      0.06689259	      0.01917447	      0.14512189	      0.01917447	      0.14739691	      0.01917447	      0.08699464
      0.10984785	     -1.28110944	      3.61442457	    -15.42675721	     49.30628297	      0.01893592	      0.13708630	      0.01893592	      0.07169341	      0.01893592	      0.06685474	      0.01893592	      0.14511489	      0.01893592	      0.14738727	      0.01893592	      0.08699968
      0.11207746	     -1.31477763	      3.72262666	    -14.76480745	     47.72666105	      0.01867666	      0.13711139	      0.01867666	      0.07173792	      0.01867666	      0.06685319	      0.01867666	      0.14510698	      0.01867666	      0.14737646	      0.01867666	      0.08700515
      0.11496741	     -1.35612947	      3.85737999	    -13.84497763	     45.50855550	      0.01835204	      0.13714350	      0.01835204	      0.07179423	      0.01835204	      0.06687338	      0.01835204	      0.14509673	      0.01835204	      0.14736256	      0.01835204	      0.08701195
      0.11785736	     -1.39477763	      3.98560534	    -12.90129766	     43.23089460	      0.01803985	      0.13717501	      0.01803985	      0.07184843	      0.01803985	      0.06691151	      0.01803985	      0.14508657	      0.01803985	      0.14734896	      0.01803985	      0.08701841
      0.12074731	     -1.43070881	      4.10729152	    -11.96851147	     40.99413368	      0.01773958	      0.13720583	      0.01773958	      0.07190032	      0.01773958	      0.06695735	      0.01773958	      0.14507659	      0.01773958	      0.14733577	      0.01773958	      0.08702454
      0.12467876	     -1.47533242	      4.26268597	    -10.74137260	     38.08675497	      0.01734939	      0.13724653	      0.01734939	      0.07196712	      0.01734939	      0.06702103	      0.01734939	      0.14506336	      0.01734939	      0.14731862	      0.01734939	      0.08703235
      0.12861020	     -1.51523929	      4.40699303	     -9.56931349	     35.35441354	      0.01697927	      0.13728582	      0.01697927	      0.07202967	      0.01697927	      0.06708191	      0.01697927	      0.14505055	      0.01697927	      0.14730243	      0.01697927	      0.08703959
      0.13474417	     -1.56859580	      4.61162385	     -7.84956638	     31.43465569	      0.01643935	      0.13734436	      0.01643935	      0.07211926	      0.01643935	      0.06716943	      0.01643935	      0.14503142	      0.01643935	      0.14727905	      0.01643935	      0.08704984
      0.14087814	     -1.61179205	      4.79342899	     -6.25497812	     27.90665308	      0.01594190	      0.13739981	      0.01594190	      0.07219984	      0.01594190	      0.06724815	      0.01594190	      0.14501323	      0.01594190	      0.14725783	      0.01594190	      0.08705895
      0.14823927	     -1.65125618	      4.98471016	     -4.49422670	     24.14697377	      0.01539618	      0.13746278	      0.01539618	      0.07228572	      0.01539618	      0.06733195	      0.01539618	      0.14499253	      0.01539618	      0.14723493	      0.01539618	      0.08706861
      0.15560041	     -1.67833014	      5.15007158	     -2.88618633	     20.85596035	      0.01490128	      0.13752241	      0.01490128	      0.07236106	      0.01490128	      0.06740537	      0.01490128	      0.14497285	      0.01490128	      0.14721447	      0.01490128	      0.08707707
      0.16296154	     -1.69408775	      5.29278839	     -1.41737900	     17.98679507	      0.01445235	      0.13757929	      0.01445235	      0.07242701	      0.01445235	      0.06746956	      0.01445235	      0.14495399	      0.01445235	      0.14719609	      0.01445235	      0.08708450
      0.17203640	     -1.69938197	      5.44190236	      0.22003958	     14.96664113	      0.01395572	      0.13764643	      0.01395572	      0.07249700	      0.01395572	      0.06753756	      0.01395572	      0.14493161	      0.01395572	      0.14717580	      0.01395572	      0.08709249
      0.18111127	     -1.69061054	      5.56593883	      1.68593859	     12.44813389	      0.01351505	      0.13771115	      0.01351505	      0.07255622	      0.01351505	      0.06759501	      0.01351505	      0.14490976	      0.01351505	      0.14715758	      0.01351505	      0.08709937
      0.19203472	     -1.66346704	      5.68795934	      3.24908068	      9.99053816	      0.01304979	      0.13778702	      0.01304979	      0.07261551	      0.01304979	      0.06765241	      0.01304979	      0.14488390	      0.01304979	      0.14713768	      0.01304979	      0.08710646
      0.20295818	     -1.62032674	      5.78612592	      4.61962103	      8.06366368	      0.01264658	      0.13786181	      0.01264658	      0.07266405	      0.01264658	      0.06769932	      0.01264658	      0.14485734	      0.01264658	      0.14711925	      0.01264658	      0.08711247
      0.20980406	     -1.58602478	      5.83789938	      5.39096720	      7.08943155	      0.01242172	      0.13790862	      0.01242172	      0.07268995	      0.01242172	      0.06772432	      0.01242172	      0.14484122	      0.01242172	      0.14710817	      0.01242172	      0.08711577
      0.21802958	     -1.53814013	      5.89209198	      6.23810510	      6.12203079	      0.01217682	      0.13796514	      0.01217682	      0.07271725	      0.01217682	      0.06775064	      0.01217682	      0.14482057	      0.01217682	      0.14709511	      0.01217682	      0.08711933
      0.22721611	     -1.47684717	      5.94425661	      7.09009003	      5.27311869	      0.01193263	      0.13802902	      0.01193263	      0.07274363	      0.01193263	      0.06777606	      0.01193263	      0.14479754	      0.01193263	      0.14708061	      0.01193263	      0.08712286
      0.23497313	     -1.41928988	      5.98292016	      7.73993522	      4.71802678	      0.01174801	      0.13808383	      0.01174801	      0.07276315	      0.01174801	      0.06779487	      0.01174801	      0.14477635	      0.01174801	      0.14706829	      0.01174801	      0.08712551
      0.24273016	     -1.35692306	      6.01779574	      8.33061717	      4.29481815	      0.01158110	      0.13813963	      0.01158110	      0.07278066	      0.01158110	      0.06781174	      0.01158110	      0.14475578	      0.01158110	      0.14705575	      0.01158110	      0.08712790
      0.25048718	     -1.29018576	      6.04983214	      8.86785759	      3.98184358	      0.01143020	      0.13819658	      0.01143020	      0.07279655	      0.01143020	      0.06782707	      0.01143020	      0.14473299	      0.01143020	      0.14704292	      0.01143020	      0.08713006
      0.25824420	     -1.21947881	      6.07983357	      9.35427430	      3.76968109	      0.01129375	      0.13825478	      0.01129375	      0.07281118	      0.01129375	      0.06784121	      0.01129375	      0.14471109	      0.01129375	      0.14702972	      0.01129375	      0.08713203
      0.26505740	     -1.15440058	      6.10507930	      9.74359352	      3.65088682	      0.01118472	      0.13830700	      0.01118472	      0.07282326	      0.01118472	      0.06785290	      0.01118472	      0.14468950	      0.01118472	      0.14701777	      0.01118472	      0.08713361
      0.27187060	     -1.08678784	      6.12972078	     10.09840009	      3.59184947	      0.01108491	      0.13836029	      0.01108491	      0.07283480	      0.01108491	      0.06786409	      0.01108491	      0.14466856	      0.01108491	      0.14700545	      0.01108491	      0.08713506
      0.27868380	     -1.01686758	      6.15413298	     10.42136324	      3.58197384	      0.01099353	      0.13841469	      0.01099353	      0.07284597	      0.01099353	      0.06787496	      0.01099353	      0.14464613	      0.01099353	      0.14699274	      0.01099353	      0.08713641
      0.28759503	     -0.92228617	      6.18624030	     10.79740275	      3.63659311	      0.01088556	      0.13848753	      0.01088556	      0.07286028	      0.01088556	      0.06788892	      0.01088556	      0.14461677	      0.01088556	      0.14697549	      0.01088556	      0.08713802
      0.29414704	     -0.85072380	      6.21031124	     11.04271837	      3.71599779	      0.01081375	      0.13854231	      0.01081375	      0.07287074	      0.01081375	      0.06789914	      0.01081375	      0.14459327	      0.01081375	      0.14696235	      0.01081375	      0.08713911
      0.30069906	     -0.77763959	      6.23500691	     11.26195069	      3.82724371	      0.01074778	      0.13859812	      0.01074778	      0.07288125	      0.01074778	      0.06790945	      0.01074778	      0.14457030	      0.01074778	      0.14694881	      0.01074778	      0.08714014
      0.30880422	     -0.68537287	      6.26670168	     11.49945845	      3.99901836	      0.01067353	      0.13866855	      0.01067353	      0.07289446	      0.01067353	      0.06792243	      0.01067353	      0.14454000	      0.01067353	      0.14693148	      0.01067353	      0.08714131
      0.31580191	     -0.60427375	      6.29529075	     11.67478644	      4.17648746	      0.01061540	      0.13873057	      0.01061540	      0.07290615	      0.01061540	      0.06793395	      0.01061540	      0.14451427	      0.01061540	      0.14691604	      0.01061540	      0.08714226
